<?xml version="1.0" encoding="utf-8"?>
<!-- Generator: Adobe Illustrator 28.1.0, SVG Export Plug-In . SVG Version: 6.00 Build 0)  -->
<svg version="1.1" id="Layer_1" xmlns="http://www.w3.org/2000/svg" xmlns:xlink="http://www.w3.org/1999/xlink" x="0px" y="0px"
	 viewBox="0 0 40 40" style="enable-background:new 0 0 40 40;" xml:space="preserve">
<style type="text/css">
	.st0{fill-rule:evenodd;clip-rule:evenodd;fill:#FFFFFF;}
	.st1{fill:#FFFFFF;}
</style>
<path class="st0" d="M35.4,26.1V20c0-4.4,0-6.5-1.4-7.9c-1.3-1.3-3.2-1.4-7.1-1.4v24.5c3.8,0,5.8-0.1,7.1-1.4
	C35.4,32.7,35.4,30.5,35.4,26.1 M30.7,18.5c0.9,0,1.6,0.7,1.6,1.6s-0.7,1.6-1.6,1.6s-1.6-0.7-1.6-1.6C29.2,19.1,29.9,18.5,30.7,18.5
	 M30.7,24.6c0.9,0,1.6,0.7,1.6,1.6c0,0.9-0.7,1.6-1.6,1.6s-1.6-0.7-1.6-1.6C29.2,25.3,29.9,24.6,30.7,24.6"/>
<path class="st1" d="M25.5,7l-3.3,3.8h2.4v24.4H13.9c-4.4,0-6.5,0-7.9-1.4S4.6,30.3,4.6,26v-6c0-4.4,0-6.5,1.4-7.9s3.5-1.4,7.9-1.4
	h3.9l-3.3-3.8c-0.4-0.5-0.3-1.2,0.2-1.6C15.2,5,15.8,5,16.2,5.5L20,9.8l3.7-4.4c0.4-0.5,1.1-0.5,1.6-0.2C25.8,5.8,25.8,6.5,25.5,7
	L25.5,7"/>
</svg>
