<?xml version="1.0" encoding="utf-8"?>
<!-- Generator: Adobe Illustrator 28.1.0, SVG Export Plug-In . SVG Version: 6.00 Build 0)  -->
<svg version="1.1" id="Layer_1" xmlns="http://www.w3.org/2000/svg" xmlns:xlink="http://www.w3.org/1999/xlink" x="0px" y="0px"
	 viewBox="0 0 40 40" style="enable-background:new 0 0 40 40;" xml:space="preserve">
<style type="text/css">
	.st0{fill:#FFFFFF;}
</style>
<path class="st0" d="M20,1.4C9.7,1.4,1.4,9.7,1.4,20S9.7,38.6,20,38.6S38.6,30.3,38.6,20S30.3,1.4,20,1.4z M20,35.5
	c-8.5,0-15.5-6.9-15.5-15.5S11.5,4.5,20,4.5S35.5,11.5,35.5,20S28.5,35.5,20,35.5z M22,19l-1.1-0.2v-5.6c1.6,0.2,2.6,1.2,2.7,2.4
	c0,0.2,0.2,0.3,0.3,0.3h1.9c0.2,0,0.3-0.2,0.3-0.4c-0.3-2.6-2.4-4.2-5.2-4.5V9.7c0-0.2-0.1-0.3-0.3-0.3h-1.2c-0.2,0-0.3,0.1-0.3,0.3
	V11c-2.9,0.3-5.2,1.9-5.2,4.9c0,2.8,2.1,4.2,4.2,4.7l1,0.3v5.9c-1.8-0.2-2.9-1.2-3.1-2.5c0-0.2-0.2-0.3-0.3-0.3h-1.9
	c-0.2,0-0.3,0.2-0.3,0.4c0.2,2.3,1.9,4.4,5.6,4.7v1.3c0,0.2,0.1,0.3,0.3,0.3h1.2c0.2,0,0.3-0.1,0.3-0.3l0-1.3c3.3-0.3,5.6-2,5.6-5.2
	C26.5,21,24.7,19.7,22,19z M19.1,18.4c-0.2-0.1-0.4-0.1-0.6-0.2c-1.4-0.5-2.1-1.3-2.1-2.4c0-1.5,1.1-2.4,2.7-2.6V18.4z M20.9,26.9
	v-5.6c0.1,0,0.2,0.1,0.4,0.1c2,0.6,2.6,1.4,2.6,2.7C23.9,25.7,22.7,26.7,20.9,26.9z"/>
</svg>
