<?xml version="1.0" encoding="utf-8"?>
<!-- Generator: Adobe Illustrator 28.1.0, SVG Export Plug-In . SVG Version: 6.00 Build 0)  -->
<svg version="1.1" id="Layer_1" xmlns="http://www.w3.org/2000/svg" xmlns:xlink="http://www.w3.org/1999/xlink" x="0px" y="0px"
	 viewBox="0 0 40 40" style="enable-background:new 0 0 40 40;" xml:space="preserve">
<style type="text/css">
	.st0{fill-rule:evenodd;clip-rule:evenodd;fill:#FFFFFF;}
	.st1{fill:#FFFFFF;}
</style>
<path class="st0" d="M12.1,18.7c-3.8-3.8-3.8-10,0-13.8s10-3.8,13.8,0l3.4,3.4l-0.2,0.9l0,0l0,0.1c0,0.1-0.1,0.3-0.1,0.4
	c-0.2,0.6-0.4,1.1-0.7,1.7c-0.7,1.4-1.9,3.4-4.1,5.6c-2.1,2.1-4.1,3.4-5.6,4.1c-0.7,0.3-1.3,0.6-1.7,0.7c-0.2,0.1-0.4,0.1-0.5,0.2
	l0,0l-0.9,0.2L12.1,18.7z M22.7,6.5c-0.5-0.5-1.4-0.6-1.9-0.1c-0.5,0.5-0.6,1.4-0.1,1.9c0,0,0,0,0.1,0.1l2.7,2.7
	c0.5,0.5,1.4,0.6,1.9,0.1c0.5-0.5,0.6-1.4,0.1-1.9c0,0,0,0-0.1-0.1L22.7,6.5z"/>
<path class="st1" d="M31.6,10.6L31.6,10.6l3.5,3.5c3.8,3.8,3.8,10,0,13.8s-10,3.8-13.8,0l-3.5-3.5l0,0c0.7-0.2,1.4-0.5,2-0.8
	c1.7-0.8,3.9-2.2,6.3-4.6c2.4-2.4,3.8-4.6,4.6-6.3C31.1,11.8,31.4,11.1,31.6,10.6 M8,17.6C2.7,20.3,0.6,26.7,3.3,32
	c2.7,5.3,9.2,7.4,14.5,4.7c2-1,3.7-2.7,4.7-4.7c-1.1-0.6-2.1-1.3-3-2.2l-9.2-9.2C9.3,19.7,8.6,18.7,8,17.6"/>
</svg>
