<svg xmlns="http://www.w3.org/2000/svg" width="40" height="40" viewBox="0 0 24 24"><path fill="#ffffff" d="M21.999 12.044a9.811 9.811 0 0 1-1.323 5.002a9.784 9.784 0 0 1-3.682 3.628a9.97 9.97 0 0 1-4.951 1.348a10.004 10.004 0 0 1-4.972-1.36a10.032 10.032 0 0 1-3.64-3.656A9.995 9.995 0 0 1 2 12.044c0-1.758.465-3.485 1.345-5.006a10.032 10.032 0 0 1 3.64-3.656a10.004 10.004 0 0 1 4.971-1.36c2.407.01 4.73.886 6.545 2.47a.657.657 0 0 1 0 .96l-1.852 1.856a.656.656 0 0 1-.872 0a6.041 6.041 0 0 0-3.734-1.413a6.039 6.039 0 0 0-5.264 3.053a6.137 6.137 0 0 0-.872 3.096a6.105 6.105 0 0 0 .829 3.042a6.038 6.038 0 0 0 5.306 3.01a6.06 6.06 0 0 0 3.036-.82a6.252 6.252 0 0 0 2.605-3.075h-4.564a.645.645 0 0 1-.646-.658v-2.578a.636.636 0 0 1 .646-.647h8.148a.645.645 0 0 1 .646.539c.064.392.093.79.086 1.187"></path></svg>