<?xml version="1.0" encoding="UTF-8"?>
<svg id="Layer_2" data-name="Layer 2" xmlns="http://www.w3.org/2000/svg" xmlns:xlink="http://www.w3.org/1999/xlink" viewBox="0 0 547.2867 571.5481">
  <defs>
    <style>
      .cls-1 {
        fill: url(#linear-gradient);
      }

      .cls-1, .cls-2, .cls-3, .cls-4 {
        stroke-width: 0px;
      }

      .cls-5 {
        stroke: #000;
        stroke-linecap: round;
        stroke-linejoin: round;
        stroke-width: .5px;
      }

      .cls-2 {
        fill: url(#linear-gradient-2);
      }

      .cls-3 {
        fill: #4ccc86;
      }

      .cls-4 {
        fill: #246660;
      }
    </style>
    <linearGradient id="linear-gradient" x1="207.2628" y1="440.9946" x2="402.221" y2="202.9335" gradientUnits="userSpaceOnUse">
      <stop offset=".2658" stop-color="#fff"/>
      <stop offset=".9313" stop-color="#4ccc86"/>
    </linearGradient>
    <linearGradient id="linear-gradient-2" x1="104.3153" y1="297.9575" x2="104.3153" y2="169.075" gradientUnits="userSpaceOnUse">
      <stop offset=".2917" stop-color="#fff"/>
      <stop offset=".5798" stop-color="#b0e8ca"/>
      <stop offset=".8673" stop-color="#68d499"/>
      <stop offset="1" stop-color="#4ccc86"/>
    </linearGradient>
  </defs>
  <g id="Layer_1-2" data-name="Layer 1">
    <path class="cls-5" d="M374.2127,124.3656L291.104,9.3341c-8.8529-12.2533-27.1588-12.0808-35.7791.3372l-83.572,120.39c-.3283.4729-.8674.7549-1.4431.7549H27.1357c-21.1809,0-34.0171,23.3835-22.6457,41.253l246.1441,386.7976c10.5249,16.5392,34.6534,16.5832,45.2386.0825l246.8711-384.8327c11.4604-17.865-1.368-41.3355-22.5929-41.3355h-129.4758c-6.5202,0-12.6439-3.1305-16.4623-8.4156Z"/>
    <path class="cls-4" d="M379.2498,238.8509l-25.2294,39.8865c-.322.509-.8823.8176-1.4846.8176h-158.2655c-.6077,0-1.1723-.3141-1.4927-.8305l-24.7488-39.8865c-.7261-1.1702.1155-2.6829,1.4927-2.6829h208.2437c1.384,0,2.2245,1.5261,1.4846,2.6958Z"/>
    <path class="cls-4" d="M250.9872,201.4549l20.6581-32.4447c.699-1.0978,2.3073-1.0809,2.9831.0312l19.7155,32.4447c.7114,1.1707-.1314,2.669-1.5013,2.669h-40.3736c-1.3864,0-2.2264-1.5307-1.4818-2.7002Z"/>
    <path class="cls-4" d="M331.5563,314.2522l-57.4296,90.7935c-.6931,1.0958-2.2937,1.0888-2.9773-.0129l-56.2811-90.7056c-.725-1.1685.1053-2.6793,1.4804-2.6829,16.9356-.0437,96.7437-.0805,113.7296-.0879,1.3844-.0006,2.2179,1.5258,1.4779,2.6958Z"/>
    <path class="cls-5" d="M132.1742,308.432l-.0748.1082c-.7219,1.0438-2.2744,1.0141-2.9558-.0567L45.928,177.7162c-4.1072-6.4542.5291-14.8999,8.1793-14.8999h100.9524c1.0532,0,1.8771.9233,1.741,1.9676-2.2352,17.1481,3.5538,30.2355,7.21,36.7671.6541,1.1686-.1972,2.6042-1.5364,2.6042-6.8595,0-23.8322,0-36.8613,0-7.3138,0-11.7791,8.0331-7.923,14.2477l41.8439,67.4378c.5709.92.1863,2.1443-.8184,2.5479-10.693,4.2955-20.0188,10.6475-26.5412,20.0435Z"/>
    <path class="cls-5" d="M271.7238,532.5381l-111.9302-175.8903c-.0686-.1078-.127-.2256-.1715-.3454-9.0284-24.2847-3.2085-34.6928,17.1485-40.2989.7479-.2059,1.5488.1129,1.9578.7721l85.7877,138.26c3.6303,5.8507,12.1306,5.8875,15.8114.0684l137.9749-218.1313c.322-.509.8823-.8176,1.4846-.8176h41.6532c1.3888,0,2.2284,1.5354,1.479,2.7046l-188.2342,293.6832c-.6925,1.0804-2.2721,1.0779-2.961-.0048Z"/>
    <path class="cls-5" d="M490.719,194.6h0c-3.8825,5.9604-10.514,9.5551-17.6274,9.5551h-34.0312s-87.0167,0-87.0167,0c-11.5704,0-22.3023-6.0367-28.3108-15.9247l-31.2992-51.5086c-8.589-14.1349-29.0293-14.349-37.9127-.3972l-32.1631,50.1964c-7.4814,11.676-24.9769,10.82-31.0312-1.6559-3.7186-7.6627-4.5005-17.4666,1.8514-29.6477.0362-.0695.0778-.1382.1225-.2026,2.0916-3.013,52.4929-75.6194,72.2605-104.0959,3.8364-5.5266,11.9796-5.5978,15.9195-.1445l76.2877,105.5911c3.8184,5.2851,9.9421,8.4156,16.4623,8.4156h100.3247c15.3141,0,24.522,16.987,16.1636,29.8189Z"/>
    <g>
      <path class="cls-3" d="M493.878,184.1203c0,3.53-.99,7.14-3.16,10.48-3.88,5.96-10.51,9.55-17.63,9.55h-121.04c-11.57,0-22.31-6.03-28.32-15.92l-31.29-51.51c-8.59-14.13-29.03-14.35-37.92-.4l-32.16,50.2c-7.48,11.68-24.98,10.82-31.03-1.66-3.72-7.66-4.5-17.46,1.85-29.64l.12-.21,72.26-104.09c3.84-5.53,11.98-5.6,15.92-.15l76.29,105.6c3.82,5.28,9.94,8.41,16.46,8.41h100.33c11.33,0,19.32,9.3,19.32,19.34Z"/>
      <path class="cls-1" d="M461.438,236.1503c1.39,0,2.23,1.54,1.48,2.71l-188.23,293.68c-.7,1.08-2.28,1.08-2.96,0l-111.93-175.89c-.06-.12-.12-.23-.18-.35-9.02-24.28-3.2-34.69,17.15-40.3.75-.2,1.55.12,1.96.78l85.79,138.26c3.63,5.85,12.13,5.88,15.81.06l137.97-218.13c.33-.51.89-.82,1.49-.82h41.65Z"/>
      <path class="cls-2" d="M164.008,201.6503c.66,1.16-.2,2.6-1.53,2.6h-36.86c-7.31,0-11.78,8.03-7.93,14.25l41.85,67.43c.57.92.18,2.15-.82,2.55-10.7,4.3-20.02,10.65-26.54,20.05l-.08.1c-.72,1.05-2.27,1.02-2.95-.05L45.928,177.8103c-4.11-6.45.53-14.9,8.18-14.9h100.95c1.05,0,1.88.92,1.74,1.97-2.23,17.15,3.56,30.24,7.21,36.77Z"/>
    </g>
  </g>
</svg>