<?xml version="1.0" encoding="UTF-8"?>
<svg id="Layer_2" data-name="Layer 2" xmlns="http://www.w3.org/2000/svg" viewBox="0 0 862.5684 803.6824">
  <defs>
    <style>
      .cls-1 {
        stroke-width: 0px;
      }
    </style>
  </defs>
  <g id="Layer_1-2" data-name="Layer 1">
    <ellipse class="cls-1" cx="434.5818" cy="78.4042" rx="79.8045" ry="78.4042"/>
    <g>
      <g>
        <line class="cls-1" x1="434.0032" y1="114.4013" x2="202.1925" y2="607.0401"/>
        <rect class="cls-1" x="45.8714" y="344.7202" width="544.4531" height="32.0006" transform="translate(-143.7303 494.9597) rotate(-64.8004)"/>
      </g>
      <rect class="cls-1" x="418.355" y="114.4011" width="32" height="492.6387"/>
      <rect class="cls-1" x="535.909" y="87.7881" width="31.9995" height="545.8648" transform="translate(-101.5491 272.8837) rotate(-25.5124)"/>
    </g>
    <g>
      <path class="cls-1" d="M36.5179,611.6978h792.5512c8.065,0,12.0738,9.8054,6.2938,15.4299-7.7368,7.5286-15.0085,16.3613-15.0085,22.9655,0,102.2462-270.4458,144.5895-385.9996,144.5895-116.2569,0-386.7027-42.3433-386.7027-144.5895,0-6.471-8.1263-15.0824-16.925-22.5098-6.417-5.4169-2.6067-15.8856,5.7909-15.8856Z"/>
      <path class="cls-1" d="M434.355,803.6824c-59.1562,0-156.1255-10.6045-239.4106-34.2959-45.834-13.0371-82.2563-28.5498-108.2554-46.1074-31.875-21.5244-48.0371-46.1475-48.0371-73.1855h0c-.0063.001-.8032-5.3027-16.5835-17.9814-8.9351-7.1777-17.7529-12.7393-17.8408-12.7939l-.0013-.0008c-7.6449-4.8056-4.2403-16.6193,4.7896-16.6193h844.5355c8.7035,0,12.3382,11.1251,5.3135,16.2637h0c-.0771.0567-8.0557,5.9209-15.8525,13.2988-13.501,12.7754-13.6582,17.7842-13.6582,17.833,0,27.0342-16.1582,51.6572-48.0244,73.1846-25.9834,17.5537-62.3799,33.0664-108.1777,46.1084-83.1973,23.6914-179.8828,34.2959-238.7969,34.2959ZM57.8762,620.698c-7.4361,0-11.5994,8.4632-7.1688,14.4353,4.0121,5.4079,5.9445,10.3263,5.9445,14.9602,0,20.6914,13.4951,40.2959,40.1104,58.2686,24.418,16.4893,59.1084,31.1953,103.1074,43.7119,81.6167,23.2168,176.5786,33.6084,234.4854,33.6084,57.6631,0,152.3398-10.3916,233.8672-33.6084,43.9639-12.5186,78.6279-27.2256,103.0312-43.7109,26.6084-17.9756,40.1006-37.5811,40.1006-58.2695,0-4.7061,1.8201-9.7648,5.6059-15.4088,4.0019-5.9661-.302-13.9867-7.486-13.9867H57.8762Z"/>
    </g>
  </g>
</svg>