<?xml version="1.0" encoding="UTF-8"?>
<svg id="Layer_2" data-name="Layer 2" xmlns="http://www.w3.org/2000/svg" viewBox="0 0 546.7867 571.0481">
  <defs>
    <style>
      .cls-1 {
        fill: #231f20;
        stroke-width: 0px;
      }
    </style>
  </defs>
  <g id="Layer_1-2" data-name="Layer 1">
    <path class="cls-1" d="M373.9627,124.1156L290.854,9.0841c-8.8529-12.2533-27.1588-12.0808-35.7791.3372l-83.572,120.39c-.3283.4729-.8674.7549-1.4431.7549H26.8857c-21.1809,0-34.0171,23.3835-22.6457,41.253l246.1441,386.7976c10.5249,16.5392,34.6534,16.5832,45.2386.0825l246.8711-384.8327c11.4604-17.865-1.368-41.3355-22.5929-41.3355h-129.4758c-6.5202,0-12.6439-3.1305-16.4623-8.4156ZM379.0847,238.6009l-25.2294,39.8865c-.322.509-.8823.8176-1.4846.8176h-158.2655c-.6077,0-1.1723-.3141-1.4927-.8305l-24.7488-39.8865c-.7261-1.1702.1155-2.6829,1.4927-2.6829h208.2437c1.384,0,2.2245,1.5261,1.4846,2.6958ZM250.8221,201.2049l20.6581-32.4447c.699-1.0978,2.3073-1.0809,2.9831.0312l19.7155,32.4447c.7114,1.1707-.1314,2.669-1.5013,2.669h-40.3736c-1.3864,0-2.2264-1.5307-1.4818-2.7002ZM331.3912,314.0022l-57.4296,90.7935c-.6931,1.0958-2.2937,1.0888-2.9773-.0129l-56.2811-90.7056c-.725-1.1685.1053-2.6793,1.4804-2.6829,16.9356-.0437,96.7437-.0805,113.7296-.0879,1.3844-.0006,2.2179,1.5258,1.4779,2.6958ZM132.0091,308.182l-.0748.1082c-.7219,1.0438-2.2744,1.0141-2.9558-.0567L45.7628,177.4662c-4.1072-6.4542.5291-14.8999,8.1793-14.8999h100.9524c1.0485,0,1.8783.9157,1.7426,1.9554-2.2396,17.1541,3.5513,30.2462,7.2084,36.7793.6541,1.1686-.1972,2.6042-1.5364,2.6042-6.8595,0-23.8322,0-36.8613,0-7.3138,0-11.7791,8.0331-7.923,14.2477l41.8439,67.4378c.5709.92.1863,2.1443-.8184,2.5479-10.693,4.2955-20.0188,10.6475-26.5412,20.0435ZM271.5587,532.2881l-111.9302-175.8903c-.0686-.1078-.1269-.2255-.1715-.3453-9.0284-24.2848-3.2086-34.6929,17.1484-40.299.7478-.2059,1.5488.1129,1.9578.7721l85.7877,138.26c3.6303,5.8507,12.1306,5.8875,15.8114.0684l137.9749-218.1313c.322-.509.8823-.8176,1.4846-.8176h41.6532c1.3888,0,2.2284,1.5354,1.479,2.7046l-188.2342,293.6832c-.6925,1.0804-2.2721,1.0779-2.961-.0048ZM490.5539,194.35h0c-3.8825,5.9604-10.514,9.5551-17.6274,9.5551h-34.0312s-87.0167,0-87.0167,0c-11.5704,0-22.3023-6.0367-28.3108-15.9247l-31.2992-51.5086c-8.589-14.1349-29.0293-14.349-37.9127-.3972l-32.1631,50.1964c-7.4814,11.676-24.9769,10.82-31.0312-1.6558-3.7186-7.6627-4.5006-17.4666,1.8513-29.6477.0363-.0695.0778-.1382.1225-.2026,2.0917-3.0132,52.4929-75.6195,72.2605-104.0959,3.8364-5.5266,11.9796-5.5978,15.9195-.1445l76.2877,105.5911c3.8184,5.2851,9.9421,8.4156,16.4623,8.4156h100.3247c15.3141,0,24.522,16.987,16.1636,29.8189Z"/>
  </g>
</svg>