<svg width="650" height="581" viewBox="0 0 650 581" fill="none" xmlns="http://www.w3.org/2000/svg">
<path d="M649.125 53.7C648.525 32.8 636.725 20 626.925 13C615.625 4.9 600.525 0 586.525 0C583.825 0 581.325 0.2 578.925 0.5C559.625 3.3 539.325 8.4 517.025 15.9C483.425 27.3 441.525 41.3 403.325 60C353.625 84.3 312.625 119.9 282.525 148.2C251.825 177.1 227.525 211.2 210.225 249.7C204.125 263.4 203.325 278.6 207.925 293.7C211.925 306.8 219.925 318.9 229.825 327.1C254.925 347.8 285.125 351.8 311.325 352.9C313.425 353 315.625 353 317.825 353C328.925 353 340.025 351.9 350.725 350.8C352.425 350.6 354.225 350.4 355.925 350.3C356.725 350.2 357.525 350 358.225 349.7C358.425 349.6 358.825 349.5 359.125 349.4C359.125 349.6 359.225 349.7 359.225 350C360.625 365.8 361.125 382 361.525 397.7C361.625 400.9 361.725 404.1 361.825 407.2C361.925 409.8 361.525 410 360.225 410.4C353.625 412.4 347.225 415.1 341.125 417.7C337.725 419.2 334.125 420.7 330.625 422C313.225 428.6 295.925 436.1 279.125 443.2C271.925 446.3 264.525 449.4 257.225 452.5C237.725 460.7 218.225 468.8 198.725 477C177.225 486 155.725 495 134.325 504C128.525 506.4 122.725 508.9 116.925 511.3C90.1246 522.5 62.4246 534.1 35.3246 545.7C34.0246 546.3 33.2246 546.5 32.8246 546.6C32.7246 546.1 32.6246 545.2 32.5246 543.5C31.9246 527.3 33.4246 510.8 34.8246 494.9C35.1246 491.3 35.5246 487.6 35.8246 484C36.2246 479 37.1246 472.4 39.9246 466.4C45.9246 453.5 58.4247 447.1 69.5247 441.5C92.4247 429.9 116.525 419.8 139.825 410C146.625 407.1 153.625 404.2 160.525 401.3C177.725 394 179.525 390.8 177.325 372.6C176.025 362.1 174.825 351.4 173.625 341C172.125 327.5 170.525 313.6 168.725 299.9C166.525 282.9 164.425 265.5 162.325 248.7C157.525 209 152.525 167.9 145.425 127.7C144.825 124.3 145.425 123.4 149.125 122.4C161.425 119.1 173.925 115.3 184.525 112.1C190.625 110.3 196.825 108.4 202.825 106.7C218.625 102.1 234.925 97.3 250.725 91.7C272.125 84.2 294.725 76.8 321.825 68.3C332.225 65 342.725 61.6 352.925 58.3C359.925 56 367.125 53.7 374.325 51.4C382.225 48.9 384.225 43.4 384.425 39.3C384.625 35.6 383.625 32.4 381.425 30.1C379.025 27.5 375.425 26.2 371.225 26.2C369.925 26.2 368.525 26.3 367.125 26.6C356.625 28.5 346.525 31.9 336.825 35.2C332.625 36.6 328.225 38.1 323.825 39.5C310.025 43.7 296.125 48.3 282.725 52.7C273.525 55.7 263.925 58.9 254.525 61.9C248.725 63.8 242.925 65.6 237.125 67.5C221.725 72.4 205.825 77.6 190.125 82.2C184.825 83.8 179.425 85.4 174.125 87C160.425 91.2 146.325 95.5 132.225 99.1C124.125 101.2 119.225 103.1 116.625 107.1C113.925 111.2 114.125 116.6 115.425 124.7C115.625 126.2 115.925 127.6 116.125 129.1C116.525 131.2 116.825 133.4 117.225 135.6C123.325 176.9 127.625 208.4 131.025 237.9C134.025 263.9 137.225 290.4 140.325 316C142.025 329.8 143.725 344.1 145.425 358.2C145.625 359.9 146.025 361.8 146.425 363.5C147.125 366.8 148.025 370.9 147.025 372.5C145.725 374.6 141.925 375.9 138.225 377.1C136.425 377.7 134.525 378.4 132.825 379.1C124.125 383 115.225 386.8 106.625 390.4C85.5247 399.3 63.7246 408.6 43.2246 420.2C32.1246 426.5 23.6246 433.4 17.3246 441.3C10.1246 450.3 5.82465 460.9 4.52465 472.7L4.12465 476.4C2.12465 493.8 0.0246472 511.8 0.124647 530.6C-0.375353 540.8 0.724647 551.9 1.72465 560.3C3.12465 572.5 11.5246 580.6 22.4246 580.6C26.3246 580.6 30.3246 579.6 34.2246 577.6C36.3246 576.5 38.5246 575.7 40.9246 574.9C42.9246 574.2 45.0247 573.4 47.1246 572.5C65.4247 564.1 84.4246 556.3 102.825 548.8C109.025 546.3 115.425 543.7 121.725 541.1C138.425 534.2 155.225 527 171.525 520.1C182.925 515.2 194.825 510.2 206.425 505.3C225.825 497.2 245.525 489 264.625 481.1C274.425 477 284.225 473 294.125 468.9C303.025 465.2 311.925 461.5 320.825 457.8C339.425 450 358.725 442 377.625 434.2C388.825 429.6 391.025 426.4 391.525 414.1C392.125 400.5 391.425 386.7 390.825 373.4C390.425 364.8 389.925 356 389.925 347.3C389.925 344.7 390.125 344.6 392.225 344.2C407.525 340.9 420.025 337.4 431.625 333.1C448.625 326.8 470.725 317.7 490.125 303.2C507.525 290.2 520.625 271.6 531.325 244.6C534.925 235.5 540.025 230 548.425 226.2C575.125 213.9 594.725 198.7 608.425 179.5C620.925 162 623.125 135.8 603.025 119.5C602.925 119.4 602.925 119.4 602.825 119.3C603.025 119.2 603.125 119.1 603.325 119C603.525 118.9 603.825 118.7 604.025 118.6C614.425 111.8 623.025 104.7 630.125 96.9C643.425 82.2 649.525 68.5 649.125 53.7ZM554.325 115.7C512.125 137.4 468.025 156.8 425.325 175.7C407.825 183.4 389.725 191.4 372.025 199.5C366.525 202 361.125 204.5 355.925 207C349.425 210.1 347.025 215.4 349.125 221.9C350.825 227.2 354.925 229.9 361.225 229.9C361.725 229.9 362.225 229.9 362.725 229.8C367.425 229.5 371.325 227.5 375.125 225.5C375.925 225.1 376.725 224.7 377.625 224.3C397.625 214.6 418.325 205.7 438.425 197.2C455.725 189.8 473.625 182.2 491.025 174C497.125 171.1 503.425 168.2 509.525 165.4C528.525 156.6 548.125 147.5 566.925 137.6C568.925 136.6 571.325 136 574.025 136C578.425 136 582.725 137.4 585.425 139.8C589.925 143.7 590.925 148.9 588.525 156.3C583.725 170.9 571.425 179.9 560.625 187.8C539.625 203.2 515.225 212.8 491.625 222.1C488.725 223.2 485.825 224.4 482.925 225.5C453.625 237.2 423.725 248.7 394.725 259.8L394.125 260C384.025 263.9 374.025 267.7 363.925 271.6C358.525 273.7 355.025 276.1 353.325 278.9C351.125 282.5 352.325 286 352.725 287.1C354.725 293.1 359.125 296.4 364.925 296.4C367.425 296.4 370.125 295.8 373.025 294.7C400.025 284.4 427.225 273.8 453.525 263.6L455.225 262.9C462.225 260.2 469.125 257.5 476.125 254.8C481.725 252.6 487.225 250.5 493.025 248.2L493.525 248C495.425 247.3 497.325 246.5 499.225 245.8C493.725 259.5 485.425 270.8 473.925 280.5C464.125 288.7 451.825 295.8 435.125 302.9C406.125 315.2 373.925 322.5 336.725 325.4C327.925 326.1 320.625 326.4 313.825 326.4C297.725 326.4 284.425 324.6 272.025 320.8C259.925 317.1 250.525 311.7 244.025 304.7C237.025 297.2 233.125 287.5 232.525 275.9C232.025 266.6 236.325 258.1 239.825 251.3C258.725 214.4 283.225 182.7 312.725 157C340.725 133.1 368.125 110 399.725 92.4C431.025 74.9 465.125 62.5 498.125 50.6L500.625 49.7C528.225 39.7 554.525 32.1 581.125 26.7C583.325 26.3 585.525 26 587.825 26C595.825 26 604.025 28.9 610.325 33.9C616.725 39.1 620.425 45.8 620.625 52.9C621.025 64.9 614.025 73.8 606.525 81.7C592.725 96.1 574.825 105.3 557.625 114.1L554.325 115.7Z" fill="white"/>
</svg>
