<svg width="217" height="217" viewBox="0 0 217 217" fill="none" xmlns="http://www.w3.org/2000/svg">
<path d="M99.8398 15C103.689 8.33332 113.311 8.33333 117.16 15L193.803 147.75C197.652 154.417 192.841 162.75 185.143 162.75H31.8567C24.1587 162.75 19.3475 154.417 23.1965 147.75L99.8398 15Z" fill="#8D0000"/>
<mask id="mask0_31_337" style="mask-type:alpha" maskUnits="userSpaceOnUse" x="21" y="10" width="175" height="153">
<path d="M99.8398 15C103.689 8.33332 113.311 8.33333 117.16 15L193.803 147.75C197.652 154.417 192.841 162.75 185.143 162.75H31.8567C24.1587 162.75 19.3475 154.417 23.1965 147.75L99.8398 15Z" fill="white"/>
</mask>
<g mask="url(#mask0_31_337)">
<rect x="109" y="-14" width="165" height="214" fill="#1D201C"/>
</g>
</svg>
