<?xml version="1.0" encoding="UTF-8"?>
<svg id="Layer_2" data-name="Layer 2" xmlns="http://www.w3.org/2000/svg" viewBox="0 0 37.8522 36.0179">
  <defs>
    <style>
      .cls-1, .cls-2, .cls-3 {
        stroke: #000;
        stroke-linejoin: round;
        stroke-width: 3px;
      }

      .cls-1, .cls-3 {
        fill: none;
      }

      .cls-2 {
        fill: #333932;
      }

      .cls-2, .cls-3 {
        stroke-linecap: round;
      }
    </style>
  </defs>
  <g id="Layer_1-2" data-name="Layer 1">
    <path class="cls-3" d="M24.429,11.5888c-1.4321-.3713-3.4221-.9172-5.0174-.9172-7.8662,0-14.243,4.8933-14.243,10.9295,0,3.4687,2.1057,6.5599,5.3897,8.5623l-.8898,2.9345c-.2143.7068.3147,1.42,1.0532,1.42h3.236c.2382,0,.4701-.0773.6606-.2203l2.5581-1.9198h4.4701l2.5582,1.9198c.1905.143.4224.2203.6607.2203h3.2359c.7385,0,1.2675-.7132,1.0531-1.42l-.8896-2.9345c1.9564-1.1929,3.4947-2.7724,4.4187-4.5879"/>
    <path class="cls-3" d="M24.4291,11.5888l8.2544-2.7515-.154,6.6555,3.8227,1.599v6.4201l-3.5327,1.8343"/>
    <path class="cls-2" d="M26.2634,19.8433c-.5065,0-.9172-.4107-.9172-.9172s.4107-.9172.9172-.9172.9171.4107.9171.9172-.4107.9172-.9171.9172Z"/>
    <path class="cls-3" d="M1.5,14.3403s0,4.4024,3.6687,5.5029"/>
    <path class="cls-1" d="M21.3122,10.2185c.2366-.6818.3654-1.4154.3654-2.1796,0-3.6113-2.8744-6.5389-6.4202-6.5389s-6.4201,2.9275-6.4201,6.5389c0,1.7273.6576,3.2981,1.7317,4.4671"/>
  </g>
</svg>