<svg width="505" height="643" viewBox="0 0 505 643" fill="none" xmlns="http://www.w3.org/2000/svg">
<path d="M494.066 424C503.166 397.3 506.266 371.9 503.666 346.5C503.166 342 502.966 337.4 502.766 332.9C502.566 328.4 502.366 323.8 501.866 319.2C501.366 314.8 500.266 310.2 498.266 304.6C496.366 299.1 491.766 295.8 486.166 295.8C485.666 295.8 485.266 295.8 484.766 295.9C478.566 296.5 472.966 297.6 467.966 299.2C410.666 317.9 366.966 353.7 338.266 405.6C316.166 445.5 299.266 486.8 288.066 528.5C286.566 533.9 285.066 539.3 282.966 545.1C282.766 544.8 282.666 544.5 282.566 544.4C275.766 432.6 268.966 321 262.466 212.6C262.366 211.6 262.766 210.5 263.166 209.1C263.266 208.7 263.366 208.3 263.566 207.8C265.766 207.4 267.866 206.9 270.066 206.5C275.566 205.4 281.266 204.2 286.866 203C315.266 196.6 339.666 182.3 359.466 160.6C379.266 138.8 389.566 111.7 392.766 72.5C392.866 71 392.666 69.5001 392.466 68.1001V67.8999C391.566 61.0999 386.466 56.3 380.166 56.3C378.866 56.3 377.566 56.4999 376.266 56.8999C373.266 57.8999 370.466 59.2999 367.766 60.7C366.766 61.2 365.666 61.8 364.566 62.3C355.066 66.8 345.566 71.3999 335.466 76.2L324.566 81.3999C321.766 77.5999 318.966 73.9 316.366 70.3C309.066 60.5 302.166 51.3001 295.366 42.1001C294.066 40.4001 292.766 38.5 291.566 36.7C289.666 33.9 287.666 31 285.466 28.3C280.366 22 275.966 19.2 271.166 19.2C267.166 19.2 263.066 21.0999 257.666 25.3999C253.266 28.8999 249.166 32.8001 245.266 36.6001C242.766 39.0001 240.066 41.5999 237.466 43.8999C234.366 46.5999 231.066 49.3 227.566 52C226.366 52.9 225.266 53.9 223.966 54.8C222.066 52 220.266 49.3001 218.366 46.6001C212.766 38.3001 207.366 30.5001 202.066 22.6001C200.966 20.9001 199.866 19.2 198.766 17.5C197.666 15.7 196.466 13.8 195.266 12C189.966 4.2 185.766 0 178.766 0C175.566 0 171.866 0.800049 166.366 2.80005C160.466 4.90005 154.566 7.2 148.866 9.5C144.966 11 140.866 12.6 136.866 14.2C131.566 16.2 126.166 18.2 120.866 20C118.266 20.9 115.766 21.8 113.166 22.8C103.766 26.2 98.6662 33.7999 99.8662 42.7C100.066 44.6 100.366 46.4 100.566 48.3C104.266 77.5 108.066 107.8 125.366 133.9C151.366 173.4 183.266 196.4 222.866 204.2C225.666 204.7 228.366 205.6 230.766 206.3C231.566 206.5 232.366 206.8 233.066 207C233.466 207.4 233.666 207.7 233.966 207.9C234.466 208.4 234.666 208.6 234.766 208.8C234.966 209 235.266 209.6 235.266 209.7C240.166 285.9 246.666 386.3 253.066 486.8C253.266 490 253.266 493.2 253.166 496.7C253.166 497.5 253.166 498.3 253.166 499.1C251.566 498.4 250.966 496.9 250.166 494.7C250.066 494.3 249.866 494 249.766 493.7C239.666 468.1 226.366 443.1 209.266 417.1C195.066 395.6 178.566 373.7 157.066 348.2C143.366 332 128.166 318 111.666 306.7C94.3663 294.8 76.2662 283.4 58.8662 272.3C52.9662 268.6 46.9661 264.7 40.9661 260.9C37.0661 258.4 33.1661 256.4 29.4661 254.9C26.6661 253.8 24.0661 253.2 21.7661 253.2C17.5661 253.2 11.7662 255 8.36621 263.9C6.46621 268.8 5.36606 274 4.46606 278.4C-2.13394 312.4 -1.43374 348.5 6.66626 392C18.2663 454.8 50.8661 509.8 106.266 560.2C129.566 581.4 152.366 596.9 176.066 607.8C194.166 616.1 212.866 623.8 230.966 631.3C236.566 633.6 242.166 635.9 247.766 638.2C255.266 641.3 263.166 642.9 271.066 642.9C280.266 642.9 289.866 640.8 300.266 636.5C333.766 622.6 364.466 603.3 391.366 579.2C416.766 556.5 439.866 528.6 459.866 496.5C473.566 475.1 485.066 450.6 494.066 424ZM229.666 604.1C226.466 603.1 224.466 602.5 222.566 601.8C195.866 591.4 170.766 577.5 147.966 560.4C125.866 543.8 105.366 523.7 86.8662 500.7C68.2662 477.5 55.2663 455.3 47.1663 432.6C36.3663 402.3 29.8661 370.8 27.7661 338.8C26.9661 325.8 26.5663 314.1 30.1663 302.2C30.2663 302.2 30.2662 302.3 30.3662 302.3C31.5662 303 32.5661 303.6 32.9661 304.2C48.2661 326.7 63.8662 349.5 79.0662 371.6C130.266 446.1 183.066 523.2 232.166 604.7C231.266 604.6 230.366 604.4 229.666 604.1ZM249.366 581.1C249.066 581 248.866 580.9 248.766 580.8C200.466 504.2 149.066 427.6 99.4661 353.6C89.7661 339.2 79.8662 324.4 70.0662 309.7C88.6662 319.3 105.666 331.9 120.666 347.1C152.666 379.6 179.666 415.1 200.866 452.6C222.566 490.9 238.766 532.4 249.066 576C249.466 577.5 249.366 579.1 249.366 581C249.366 581 249.366 581 249.366 581.1ZM252.166 183.3C231.866 183.3 212.266 178.3 196.966 169.2C173.866 155.5 156.366 137.6 144.966 115.9C134.266 95.6999 128.466 71.5 127.666 43.8C129.966 42.9 132.266 41.9 134.566 41C147.866 35.6 160.366 30.4001 173.766 27.1001L177.166 32.2C180.066 36.5 182.766 40.4 185.366 44.3C187.466 47.4 189.566 50.5001 191.566 53.6001C196.466 60.9001 201.466 68.4001 206.766 75.6001C211.766 82.3001 216.266 85.3 221.266 85.3C225.166 85.3 229.266 83.5 234.266 79.5C238.566 76.1 242.666 72.4 246.566 68.8C248.766 66.8 250.966 64.8 253.166 62.8C256.666 59.7001 260.266 56.7 263.966 53.5C265.266 52.4 266.566 51.3001 267.966 50.1001C268.566 50.7001 269.066 51.2999 269.566 51.8999C271.266 53.7999 272.766 55.4001 274.066 57.1001C277.866 62.2001 281.766 67.5 285.566 72.5C290.766 79.6 296.266 87.0001 301.666 94.1001C308.766 103.4 312.766 108.2 319.166 108.2C323.366 108.2 328.066 106.1 335.466 102.7C341.866 99.7 348.266 96.8 355.066 93.8C357.366 92.8 359.766 91.7001 362.066 90.6001C362.166 90.9001 362.166 91.1001 362.266 91.3C362.666 92.7001 362.966 93.8999 362.766 94.7C359.766 112.5 352.966 128.2 342.566 141.4C331.766 155.1 317.766 165.8 301.166 173.1C286.266 179.7 269.266 183.3 252.166 183.3ZM305.366 564C317.466 511.7 336.666 461.2 362.366 414C381.366 379.1 410.766 351.8 452.266 330.3C453.366 329.7 454.766 329.5 456.466 329.2C444.366 358.1 383.766 457.4 338.066 522.7C335.566 526.2 333.166 529.9 330.766 533.4C323.166 544.6 315.466 556.2 305.266 566.7C305.166 565.6 305.166 564.7 305.366 564ZM395.366 541.3C374.966 563.2 351.566 582.1 325.566 597.6C322.766 599.3 319.666 600.6 315.666 602.3C314.666 602.8 313.566 603.2 312.366 603.8C312.466 603.5 312.566 603.2 312.666 602.9C313.166 601.4 313.366 600.6 313.666 600.3C319.566 592 326.466 582.4 333.366 573.1C381.566 508.3 423.766 438.1 464.566 370.2C468.266 364.1 471.866 358 475.566 352C475.666 351.8 475.866 351.6 475.966 351.5C476.066 351.5 476.366 351.5 476.566 351.6H476.666C476.766 351.9 476.766 352.2 476.866 352.4C477.266 354 477.666 355.6 477.666 357.2C478.666 380.9 476.266 398.5 470.066 414.3C468.866 417.2 467.766 420.2 466.566 423.1C460.666 438.2 454.566 453.7 446.966 468.1C432.466 495.4 415.066 520.1 395.366 541.3Z" fill="#1D1D1B"/>
</svg>
