<svg width="496" height="488" viewBox="0 0 496 488" fill="none" xmlns="http://www.w3.org/2000/svg">
<path d="M11.2618 384.3C12.0618 384.4 12.7617 384.5 13.5617 384.5C19.8617 384.5 24.1618 380.1 25.3618 372.5C25.5618 371.3 25.7617 370.1 26.0617 368.9C26.3617 367.5 26.6618 366.1 26.8618 364.7C27.6618 359.2 28.5618 353.7 29.3618 348.3C32.0618 331.1 34.9618 313.2 35.4618 295.3C35.5618 292.7 35.5617 290.1 35.6617 287.5C36.0617 274.1 36.3617 260.2 37.5617 246.6C41.1617 204.4 47.3617 162.4 56.1617 121.9L56.8618 118.6C59.8618 104.7 62.9618 90.4 67.4618 76.7C69.7618 69.8 71.9617 63.2 77.0617 58.3C79.9617 55.5 82.4618 54.2 84.8618 54.2C87.3618 54.2 89.9618 55.8 92.7618 59.1C97.0618 64.2 98.5618 70.7 99.4618 76.4C103.662 102.7 103.862 129.8 100.262 159.3C99.2618 167.8 98.0617 177.4 96.1617 186.7C94.9617 192.6 96.7618 197.4 101.262 200.2C103.462 201.6 105.862 202.3 108.262 202.3C110.362 202.3 112.562 201.7 114.662 200.7C119.362 198.3 120.662 193.8 121.462 189.3C126.962 156.3 128.862 129 127.462 103.5C127.362 100.9 126.862 98.3 126.462 95.8C125.662 91 124.862 86.5 126.162 82.5C127.362 78.8 128.162 74.9 128.962 71.3C129.762 67.5 130.462 64 131.662 60.5C133.462 55.3 135.562 51.4 138.562 48.3C140.462 46.3 141.262 46.1 141.562 46.1C141.762 46.1 142.662 46.3 144.162 49.4C149.562 60 150.762 71.5 151.162 81.4L151.262 84.5C152.562 113.9 153.862 144.3 153.262 174.2C153.262 175.8 153.262 177.4 153.262 178.9C153.262 180 153.262 181.1 153.262 182.2C153.262 186.5 155.362 189.7 159.562 191.8C161.562 192.8 163.662 193.4 165.762 193.4C171.762 193.4 176.562 189.2 177.562 183C177.962 180.7 177.862 178.5 177.862 176.3C177.862 175.8 177.862 175.2 177.862 174.7C177.662 141.6 177.462 107.4 177.162 72.8C177.062 64.9 177.062 56.8 181.062 49.5C183.862 44.5 187.762 42 192.962 41.9H193.062C197.462 41.9 199.762 44.9 202.062 49.6C203.662 53 204.762 55.8 205.362 58.5C207.762 69.3 209.062 80.8 209.062 92.7C209.062 111.3 207.062 130.1 205.062 148.3L204.662 152.1C204.462 153.6 204.362 155 204.162 156.5C203.162 165.5 202.162 174.8 201.562 183.9C201.162 190.6 205.862 196.1 212.762 196.9C213.262 197 213.662 197 214.162 197C219.562 197 224.162 193.3 225.762 187.5C226.362 185.3 226.862 183.2 226.962 181.3C227.162 178.7 227.462 176.1 227.762 173.5C228.562 166 229.262 158.1 229.662 150.4C230.362 134.7 235.062 122.5 244.362 111.9C258.162 96.3 272.462 89 289.362 89C291.562 89 293.862 89.1 296.062 89.4C314.462 91.4 323.662 98.2 327.962 112.8L328.062 113.2C329.262 117.3 329.862 119.7 327.462 122C326.462 123 325.462 123.4 324.162 123.4C322.662 123.4 320.862 122.8 319.262 122.3L317.962 121.9C312.462 120.1 306.762 118.2 301.062 116.6C296.662 115.4 292.362 114.8 288.062 114.8C278.262 114.8 269.062 118 261.462 124.1C254.662 129.6 249.562 137.1 247.062 145.3C240.162 167.8 238.962 191 243.462 214.2C244.262 218.1 245.562 221.9 247.262 225.1C251.862 233.5 257.662 242.8 267.962 247.9C250.262 254.1 233.662 263 217.562 271.7C215.162 273 212.862 274.3 210.462 275.5C208.062 276.8 205.262 278.3 202.562 280C198.262 282.7 196.462 286.9 197.662 291.6C198.862 296.5 202.562 299.6 207.962 300.3C208.562 300.4 209.262 300.4 209.862 300.4C212.762 300.4 215.662 299.6 218.762 297.9C222.762 295.7 227.362 293.2 231.962 290.8L233.962 289.7C254.462 278.8 275.762 267.5 299.462 263.5C305.062 262.6 310.462 260.7 315.762 259C317.162 258.5 318.462 258.1 319.862 257.6C340.262 251 354.762 228.8 352.162 208.2C351.462 202.6 350.162 197.3 348.862 192.4C348.662 191.8 348.562 191.2 348.362 190.6C346.562 183.8 344.762 177.4 345.562 170.6C346.362 163.5 349.862 159.5 355.462 159.5C357.362 159.5 359.562 160 361.862 160.9C370.062 164.1 375.062 170.3 377.562 180.3C381.362 195.4 385.462 213.4 387.162 231.9C388.362 244.9 389.362 260.2 387.862 275.4C386.162 292.4 380.062 309.5 369.162 327.6C360.262 342.4 349.862 356.5 339.762 370.1C335.862 375.4 331.862 380.9 327.962 386.3C313.862 405.9 299.562 427.3 292.862 452.7C291.062 459.7 288.962 467.6 289.362 475.9C289.662 482.7 293.662 486.9 300.362 487.6C300.762 487.6 301.162 487.7 301.562 487.7C306.962 487.7 311.362 484.4 313.162 479.2C313.562 478 313.662 476.8 313.762 475.6C313.862 475 313.862 474.5 313.962 474C317.062 454.5 324.262 436.2 335.362 419.5C342.462 408.8 350.162 397.9 358.862 386L360.862 383.2C372.162 367.7 383.962 351.7 393.762 334.7C405.962 313.7 412.362 292.7 413.362 270.6C414.662 241.9 411.162 212.3 402.162 177.3C398.762 164 392.562 153.8 383.762 146.9C375.062 140.1 363.662 136.4 349.962 136.1H349.262L348.762 136.5C348.662 136.6 348.562 136.6 348.462 136.7C353.662 129.7 355.362 121.5 353.562 112.4C350.162 95.9 342.062 83.8 329.262 76.6C317.362 69.9 303.362 66.3 288.962 66.3C270.462 66.3 252.962 72.3 239.762 83.2C238.962 83.8 238.262 84.5 237.562 85.2C236.462 86.3 235.362 87.3 234.162 88.1C233.962 86.1 233.762 84.1 233.562 82.2C232.962 75.8 232.362 69.8 231.562 63.7C229.362 45.4 223.262 36.6 218.862 31.6C211.662 23.4 203.062 19.4 192.562 19.4C192.362 19.4 192.162 19.4 191.962 19.4C181.062 19.6 171.362 24 162.562 32.9C155.162 25.9 148.662 22.6 142.062 22.6C132.762 22.6 123.362 29 110.862 44C110.662 43.8 110.362 43.5 109.962 43.1C109.662 42.7 109.262 42.4 108.862 42C101.262 35.3 92.4618 31.7 83.4618 31.7C71.3618 31.7 60.0617 38.3 52.6617 49.7C48.9617 55.4 46.0617 61.7 43.6617 69.2C35.9617 93.9 30.9617 119.7 26.1617 144.6C25.6617 147.4 25.0617 150.1 24.5617 152.9C18.2617 185 14.0617 219 12.0617 253.9C11.6617 260.5 11.3617 267.2 11.0617 273.7C9.86174 298.8 8.66182 324.7 3.76182 349.9C3.46182 351.5 3.16179 353.1 2.86179 354.7C1.86179 359.6 0.861721 364.6 0.161721 369.6C-0.938279 376.9 3.66182 383.2 11.2618 384.3ZM317.562 178C318.162 184.2 319.762 190.3 321.262 196.1C322.262 199.8 323.262 203.6 323.962 207.4C325.662 216.1 322.662 223.7 315.462 229.3C310.962 232.8 305.962 236.1 300.662 236.1C298.662 236.1 296.662 235.6 294.662 234.7C281.662 228.7 273.662 219.3 270.062 206C266.962 194.4 268.562 182.7 270.062 171.4C270.262 170 270.462 168.6 270.662 167.2C273.762 143.7 282.062 140.5 289.762 140.5C293.962 140.5 299.162 141.6 305.462 143.9C310.962 145.9 317.362 148 324.162 148C324.662 148 325.162 148 325.662 148C318.962 155.3 316.362 165 317.562 178Z" fill="black"/>
<path d="M389.462 103.7C387.662 104.5 385.862 105.2 384.262 106.4C380.862 108.8 378.962 112.2 379.162 115.9C379.262 119.7 381.462 123.1 385.162 125.2C387.162 126.4 389.262 126.9 391.462 126.9C394.562 126.9 397.562 125.8 400.262 124.6C426.862 113.2 454.362 103.4 480.262 94.5C483.462 93.4 486.262 92.2 488.762 90.9C494.062 88.2 496.262 84.3 495.362 79.2C494.362 73.7 489.062 69.8 482.362 69.5H482.062L481.762 69.6C481.462 69.7 481.162 69.7 480.762 69.8C479.662 70 478.162 70.3 476.662 70.9C473.262 72.1 469.862 73.3 466.462 74.5C441.162 83.4 414.962 92.7 389.862 103.5L389.462 103.7Z" fill="black"/>
<path d="M356.762 79.8C356.962 79.8 357.162 79.8 357.362 79.8C361.962 79.8 365.562 77.3 368.562 72.1C374.262 62.3 380.862 52.9 387.262 43.8C389.262 40.9 391.362 38 393.362 35C394.462 33.4 395.662 31.7 396.762 30.1C399.562 26.1 402.462 21.9 405.262 17.7C408.462 12.9 408.162 8 404.262 4.3C401.262 1.4 398.262 0 394.962 0C393.462 0 391.862 0.3 390.262 1C386.962 2.3 384.362 4.60001 381.962 8.10001C371.562 23.3 359.662 40.6 348.162 57.4C347.562 58.4 347.062 59.3 346.562 60.3C346.162 61.1 345.762 61.9 345.262 62.6C343.162 65.8 342.962 69.7 344.762 73.1C347.262 77.3 351.762 79.8 356.762 79.8Z" fill="black"/>
</svg>
