<svg xmlns="http://www.w3.org/2000/svg" width="40" height="40" viewBox="0 0 24 24"><path fill="#ffffff" d="M12 2C6.486 2 2 6.486 2 12s4.486 10 10 10s10-4.486 10-10S17.514 2 12 2m0 18c-4.411 0-8-3.589-8-8s3.589-8 8-8s8 3.589 8 8s-3.589 8-8 8" style="fill: rgb(0, 0, 0);"></path><circle cx="8.5" cy="10.5" r="1.5" fill="#ffffff" style="fill: rgb(0, 0, 0);"></circle><circle cx="15.493" cy="10.493" r="1.493" fill="#ffffff" style="fill: rgb(0, 0, 0);"></circle><path fill="#ffffff" d="M12 18c4 0 5-4 5-4H7s1 4 5 4" style="fill: rgb(0, 0, 0);"></path></svg>