<?xml version="1.0" encoding="utf-8"?>
<!-- Generator: Adobe Illustrator 28.1.0, SVG Export Plug-In . SVG Version: 6.00 Build 0)  -->
<svg version="1.1" id="Layer_1" xmlns="http://www.w3.org/2000/svg" xmlns:xlink="http://www.w3.org/1999/xlink" x="0px" y="0px"
	 viewBox="0 0 40 40" style="enable-background:new 0 0 40 40;" xml:space="preserve">
<style type="text/css">
	.st0{fill:#FFFFFF;}
</style>
<path class="st0" d="M15.2,3.6c-3.1,0-6.1,2.9-4.7,6.6H5.3c-1.8,0-3.3,1.5-3.3,3.3v3.3c0,0.9,0.7,1.6,1.6,1.6h14.7v-4.9h3.3v4.9
	h14.7c0.9,0,1.6-0.7,1.6-1.6v-3.3c0-1.8-1.5-3.3-3.3-3.3h-5.2c1.9-5.3-5.3-9.1-8.6-4.5L20,7l-0.9-1.3C18,4.2,16.6,3.6,15.2,3.6
	 M15.1,7c1.5,0,2.2,1.8,1.2,2.8c-1,1-2.8,0.3-2.8-1.2C13.5,7.7,14.2,7,15.1,7 M24.9,7c1.5,0,2.2,1.8,1.2,2.8s-2.8,0.3-2.8-1.2
	C23.3,7.7,24,7,24.9,7 M3.7,20v13c0,1.8,1.5,3.3,3.3,3.3H33c1.8,0,3.3-1.5,3.3-3.3V20H21.6v13h-3.3V20H3.7z"/>
</svg>
