<?xml version="1.0" encoding="utf-8"?>
<!-- Generator: Adobe Illustrator 28.1.0, SVG Export Plug-In . SVG Version: 6.00 Build 0)  -->
<svg version="1.1" id="Layer_1" xmlns="http://www.w3.org/2000/svg" xmlns:xlink="http://www.w3.org/1999/xlink" x="0px" y="0px"
	 viewBox="0 0 40 40" style="enable-background:new 0 0 40 40;" xml:space="preserve">
<style type="text/css">
	.st0{fill:#FFFFFF;}
</style>
<path class="st0" d="M10.6,28l-3.5-4.4c1.6-2,3.6-3.6,5.8-4.7c2.2-1.2,4.6-1.7,7.1-1.7c2.6,0,4.9,0.6,7.1,1.8
	c2.2,1.3,4.1,2.8,5.8,4.8l-3.5,4.3c-1.2-1.5-2.7-2.6-4.2-3.6c-1.5-0.9-3.3-1.3-5.1-1.3s-3.6,0.5-5.1,1.3
	C13.3,25.4,11.8,26.5,10.6,28 M3.5,19.3L0,15c2.6-3.2,5.6-5.8,9-7.5s7.1-2.8,11-2.8s7.6,0.9,11,2.8s6.4,4.3,9,7.5l-3.5,4.3
	c-2.2-2.6-4.6-4.7-7.4-6.1S23.2,11,20,11s-6.3,0.7-9.1,2.2C8.2,14.7,5.6,16.8,3.5,19.3"/>
<circle class="st0" cx="20" cy="34.3" r="3.7"/>
</svg>
