<?xml version="1.0" encoding="utf-8"?>
<!-- Generator: Adobe Illustrator 28.1.0, SVG Export Plug-In . SVG Version: 6.00 Build 0)  -->
<svg version="1.1" id="Layer_1" xmlns="http://www.w3.org/2000/svg" xmlns:xlink="http://www.w3.org/1999/xlink" x="0px" y="0px"
	 viewBox="0 0 40 40" style="enable-background:new 0 0 40 40;" xml:space="preserve">
<style type="text/css">
	.st0{fill-rule:evenodd;clip-rule:evenodd;fill:#FFFFFF;}
</style>
<path class="st0" d="M14.2,34.4C8.6,30.1,1,23.1,1,16.4C1,5.2,11.4,1,20,9.6c8.6-8.7,19-4.4,19,6.7c0,6.7-7.6,13.7-13.2,18.1
	c-2.6,2-3.8,2.9-5.8,2.9S16.8,36.4,14.2,34.4 M28.6,11.2c0.8,0,1.4,0.6,1.4,1.4V15h2.4c0.8,0,1.4,0.6,1.4,1.4c0,0.8-0.6,1.4-1.4,1.4
	H30v2.4c0,0.8-0.6,1.4-1.4,1.4c-0.8,0-1.4-0.6-1.4-1.4v-2.4h-2.4c-0.8,0-1.4-0.6-1.4-1.4c0-0.8,0.6-1.4,1.4-1.4h2.4v-2.4
	C27.1,11.8,27.7,11.2,28.6,11.2"/>
</svg>
