<?xml version="1.0" encoding="utf-8"?>
<!-- Generator: Adobe Illustrator 28.1.0, SVG Export Plug-In . SVG Version: 6.00 Build 0)  -->
<svg version="1.1" id="Layer_1" xmlns="http://www.w3.org/2000/svg" xmlns:xlink="http://www.w3.org/1999/xlink" x="0px" y="0px"
	 viewBox="0 0 40 40" style="enable-background:new 0 0 40 40;" xml:space="preserve">
<style type="text/css">
	.st0{fill:#FFFFFF;}
</style>
<path class="st0" d="M30.5,5.9c-3,0-4.9,0.6-5.9,1c-1.3-0.6-2.9-1-4.7-1s-3.3,0.4-4.7,1c-1-0.5-2.9-1-5.9-1C4.1,5.9,0.6,20,0.6,23.5
	c0,1.4,2.4,2.8,5.6,3.3c1.1,3.9,6.4,6.9,13,7.2v-7.5c-1-0.6-2.7-1.9-2.7-3c0-1.8,3.5-1.8,3.5-1.8s3.5,0,3.5,1.8c0,1.2-1.7,2.4-2.7,3
	v7.5c6.5-0.3,11.9-3.3,13-7.2c3.2-0.5,5.6-1.9,5.6-3.3C39.4,20,35.9,5.9,30.5,5.9 M6.1,23.3c-0.9-0.2-1.6-0.4-2.1-0.6
	C4.5,17.8,8,10.2,9.5,9.5c0.9,0,1.7,0.1,2.4,0.2C8.1,13.7,6.7,20.1,6.1,23.3 M14.7,20c-0.9,0-1.8-0.8-1.8-1.8s0.8-1.8,1.8-1.8
	c0.9,0,1.8,0.8,1.8,1.8C16.5,19.2,15.7,20,14.7,20 M25.3,20c-0.9,0-1.8-0.8-1.8-1.8s0.8-1.8,1.8-1.8c0.9,0,1.8,0.8,1.8,1.8
	C27,19.2,26.3,20,25.3,20 M33.9,23.3c-0.5-3.2-2-9.6-5.7-13.6c0.6-0.1,1.3-0.2,2.4-0.2c1.6,0.7,5,8.4,5.4,13.2
	C35.4,22.8,34.8,23.1,33.9,23.3"/>
</svg>
