<?xml version="1.0" encoding="utf-8"?>
<!-- Generator: Adobe Illustrator 28.1.0, SVG Export Plug-In . SVG Version: 6.00 Build 0)  -->
<svg version="1.1" id="Layer_1" xmlns="http://www.w3.org/2000/svg" xmlns:xlink="http://www.w3.org/1999/xlink" x="0px" y="0px"
	 viewBox="0 0 40 40" style="enable-background:new 0 0 40 40;" xml:space="preserve">
<style type="text/css">
	.st0{fill:#FFFFFF;}
</style>
<path class="st0" d="M37.5,16.8c0-0.1-0.1-0.2-0.1-0.3l-3.4-8c-0.8-1.9-2.7-3.1-4.9-3.1H11c-2.2,0-4.1,1.2-4.9,3.1l-3.4,8
	c-0.1,0.2-0.1,0.4-0.1,0.6v16c0,0.8,0.7,1.5,1.5,1.5h2.9c0.8,0,1.5-0.7,1.5-1.5v-1.5h23.3v1.5c0,0.8,0.7,1.5,1.5,1.5H36
	c0.8,0,1.5-0.7,1.5-1.5v-16C37.5,17,37.5,16.9,37.5,16.8 M9.8,25.8c-1.6,0-2.9-1.3-2.9-2.9S8.2,20,9.8,20s2.9,1.3,2.9,2.9
	S11.4,25.8,9.8,25.8 M30.2,25.8c-1.6,0-2.9-1.3-2.9-2.9s1.3-2.9,2.9-2.9c1.6,0,2.9,1.3,2.9,2.9S31.8,25.8,30.2,25.8 M6.2,15.6l2.6-6
	C9.1,8.9,10,8.3,11,8.3h18c1,0,1.9,0.5,2.2,1.3l2.6,6H6.2z"/>
</svg>
