<?xml version="1.0" encoding="utf-8"?>
<!-- Generator: Adobe Illustrator 28.1.0, SVG Export Plug-In . SVG Version: 6.00 Build 0)  -->
<svg version="1.1" id="Layer_1" xmlns="http://www.w3.org/2000/svg" xmlns:xlink="http://www.w3.org/1999/xlink" x="0px" y="0px"
	 viewBox="0 0 40 40" style="enable-background:new 0 0 40 40;" xml:space="preserve">
<style type="text/css">
	.st0{fill:#FFFFFF;}
</style>
<path class="st0" d="M34.2,19.6l-18.5,20c-0.5,0.5-1.3,0.6-1.8,0.1c-0.3-0.3-0.5-0.8-0.4-1.2l2.4-12.3l-9.5-3.6
	c-0.7-0.3-1-1-0.8-1.7c0.1-0.2,0.2-0.3,0.3-0.4l18.5-20c0.5-0.5,1.3-0.6,1.8-0.1c0.3,0.3,0.5,0.8,0.4,1.2l-2.4,12.3l9.5,3.6
	c0.7,0.3,1,1,0.8,1.7C34.4,19.3,34.3,19.5,34.2,19.6L34.2,19.6z"/>
</svg>
