<?xml version="1.0" encoding="utf-8"?>
<!-- Generator: Adobe Illustrator 28.1.0, SVG Export Plug-In . SVG Version: 6.00 Build 0)  -->
<svg version="1.1" id="Layer_1" xmlns="http://www.w3.org/2000/svg" xmlns:xlink="http://www.w3.org/1999/xlink" x="0px" y="0px"
	 viewBox="0 0 40 40" style="enable-background:new 0 0 40 40;" xml:space="preserve">
<style type="text/css">
	.st0{fill:#FFFFFF;}
</style>
<path class="st0" d="M35.3,13.8c-0.1-0.2-0.1-0.3-0.2-0.5c-1-2.3-2.6-4.3-4.7-5.8h3.3C34.4,7.5,35,7,35,6.3S34.4,5,33.8,5H17.5
	C10.3,5,4.4,10.5,3.8,17.7C1.6,18.2,0,20.2,0,22.5c0,0.7,0.6,1.2,1.2,1.2s1.2-0.6,1.2-1.2c0-0.9,0.5-1.8,1.3-2.2
	c0.3,2.8,1.5,5.4,3.3,7.6l2,5.5c0.4,1,1.3,1.7,2.4,1.7h2c1.1,0,2-0.7,2.4-1.7l0.3-0.8h9l0.3,0.8c0.4,1,1.3,1.7,2.4,1.7h2
	c1.1,0,2-0.7,2.4-1.7l2.5-7.1H35c2.1,0,3.8-1.7,3.8-3.8v-5C38.8,15.5,37.3,13.9,35.3,13.8 M23.8,11.2h-6.2c-0.7,0-1.2-0.6-1.2-1.2
	s0.6-1.2,1.2-1.2h6.2c0.7,0,1.2,0.6,1.2,1.2S24.4,11.2,23.8,11.2 M28.1,20c-1,0-1.9-0.8-1.9-1.9s0.8-1.9,1.9-1.9s1.9,0.8,1.9,1.9
	S29.2,20,28.1,20L28.1,20"/>
</svg>
