<?xml version="1.0" encoding="utf-8"?>
<!-- Generator: Adobe Illustrator 28.1.0, SVG Export Plug-In . SVG Version: 6.00 Build 0)  -->
<svg version="1.1" id="Layer_1" xmlns="http://www.w3.org/2000/svg" xmlns:xlink="http://www.w3.org/1999/xlink" x="0px" y="0px"
	 viewBox="0 0 40 40" style="enable-background:new 0 0 40 40;" xml:space="preserve">
<style type="text/css">
	.st0{fill:#FFFFFF;}
</style>
<path class="st0" d="M20,1.6C9.8,1.6,1.6,9.8,1.6,20S9.8,38.4,20,38.4S38.4,30.2,38.4,20S30.2,1.6,20,1.6 M13.1,6l5.5,3.3v4L13.5,17
	l-3.8-1.3L8.7,9.2C9.9,7.9,11.4,6.8,13.1,6 M4.6,22.6l4.3-4.3l3.8,1.3l2,6.1l-1.8,2.9l-6.1-0.4C5.7,26.6,4.9,24.7,4.6,22.6
	 M17.3,35.4l-2.2-5.2l1.8-2.9h6.2l1.7,2.9l-1.9,5.1C21,35.7,19.1,35.7,17.3,35.4 M32.7,29.2l-5.6-0.3l-1.7-3l2-6.2l3.7-1.3l4.3,4.6
	C34.9,25.2,34,27.3,32.7,29.2 M31.4,9.3l-1.1,6.5L26.5,17l-5.1-3.7v-4L26.9,6C28.6,6.8,30.1,7.9,31.4,9.3"/>
</svg>
