<?xml version="1.0" encoding="utf-8"?>
<!-- Generator: Adobe Illustrator 28.1.0, SVG Export Plug-In . SVG Version: 6.00 Build 0)  -->
<svg version="1.1" id="Layer_1" xmlns="http://www.w3.org/2000/svg" xmlns:xlink="http://www.w3.org/1999/xlink" x="0px" y="0px"
	 viewBox="0 0 40 40" style="enable-background:new 0 0 40 40;" xml:space="preserve">
<style type="text/css">
	.st0{fill:#FFFFFF;}
</style>
<path class="st0" d="M11.3,37.6c-1,0-1.8-0.3-2.5-1c-0.7-0.7-1-1.5-1-2.5c0-1,0.3-1.8,1-2.5c0.7-0.7,1.5-1,2.5-1c1,0,1.8,0.3,2.5,1
	c0.7,0.7,1,1.5,1,2.5c0,1-0.3,1.8-1,2.5C13.1,37.3,12.3,37.6,11.3,37.6 M28.9,37.6c-1,0-1.8-0.3-2.5-1c-0.7-0.7-1-1.5-1-2.5
	c0-1,0.3-1.8,1-2.5c0.7-0.7,1.5-1,2.5-1c1,0,1.8,0.3,2.5,1c0.7,0.7,1,1.5,1,2.5c0,1-0.3,1.8-1,2.5C30.7,37.3,29.9,37.6,28.9,37.6
	 M8.1,5.9h26c0.7,0,1.2,0.3,1.5,0.9s0.4,1.2,0,1.8l-6.3,11.3c-0.3,0.6-0.8,1-1.3,1.4c-0.5,0.3-1.1,0.5-1.8,0.5H13.2l-1.9,3.5h21.2
	v3.5H11.3c-1.3,0-2.3-0.6-3-1.7c-0.7-1.2-0.7-2.3-0.1-3.5l2.4-4.3L4.2,5.9H0.7V2.4h5.7L8.1,5.9z"/>
</svg>
