<?xml version="1.0" encoding="utf-8"?>
<!-- Generator: Adobe Illustrator 28.1.0, SVG Export Plug-In . SVG Version: 6.00 Build 0)  -->
<svg version="1.1" id="Layer_1" xmlns="http://www.w3.org/2000/svg" xmlns:xlink="http://www.w3.org/1999/xlink" x="0px" y="0px"
	 viewBox="0 0 40 40" style="enable-background:new 0 0 40 40;" xml:space="preserve">
<style type="text/css">
	.st0{fill:#FFFFFF;}
	.st1{fill-rule:evenodd;clip-rule:evenodd;fill:#FFFFFF;}
</style>
<path class="st0" d="M14.4,35.6l-9-9c-1.6-1.6-2.5-2.5-2.6-3.5c0-0.2,0-0.5,0-0.7c0.1-1,0.9-1.8,2.6-3.5c1.6-1.6,2.5-2.5,3.5-2.6
	c0.2,0,0.5,0,0.7,0c1,0.1,1.8,0.9,3.5,2.6l1.3,1.3l6.9-6.9L20,12c-1.6-1.6-2.5-2.5-2.6-3.5c0-0.2,0-0.5,0-0.7c0.1-1,0.9-1.8,2.6-3.5
	c1.6-1.6,2.5-2.5,3.5-2.6c0.2,0,0.5,0,0.7,0c1,0.1,1.8,0.9,3.5,2.6l9,9c1.6,1.6,2.5,2.5,2.6,3.5c0,0.2,0,0.5,0,0.7
	c-0.1,1-0.9,1.8-2.6,3.5c-1.6,1.6-2.5,2.5-3.5,2.6c-0.2,0-0.5,0-0.7,0c-1-0.1-1.8-0.9-3.5-2.6l-2-2l-7,7l2,2
	c1.6,1.6,2.5,2.5,2.6,3.5c0,0.2,0,0.5,0,0.7c-0.1,1-0.9,1.8-2.6,3.5c-1.6,1.6-2.5,2.5-3.5,2.6c-0.2,0-0.5,0-0.7,0
	C16.9,38.1,16.1,37.3,14.4,35.6"/>
<path class="st1" d="M30.1,3.3c0.5-0.5,1.3-0.5,1.8,0l5.2,5.2c0.5,0.5,0.4,1.3-0.1,1.8c-0.5,0.4-1.2,0.4-1.7,0L30.1,5
	C29.7,4.6,29.7,3.8,30.1,3.3 M4.3,29.1c0.5-0.5,1.3-0.5,1.8,0l5.2,5.2c0.5,0.5,0.4,1.3-0.1,1.8c-0.5,0.4-1.2,0.4-1.7,0l-5.2-5.2
	C3.8,30.4,3.8,29.6,4.3,29.1"/>
</svg>
