<?xml version="1.0" encoding="utf-8"?>
<!-- Generator: Adobe Illustrator 28.1.0, SVG Export Plug-In . SVG Version: 6.00 Build 0)  -->
<svg version="1.1" id="Layer_1" xmlns="http://www.w3.org/2000/svg" xmlns:xlink="http://www.w3.org/1999/xlink" x="0px" y="0px"
	 viewBox="0 0 40 40" style="enable-background:new 0 0 40 40;" xml:space="preserve">
<style type="text/css">
	.st0{fill-rule:evenodd;clip-rule:evenodd;fill:#FFFFFF;}
</style>
<path class="st0" d="M40,11c0,5-3.9,9-8.9,9c-0.2,0-0.4,0-0.6,0c-1.7-0.1-3.6,0.3-4.6,1.6L13.9,36c-1.9,2.3-5.3,2.6-7.6,0.7
	S3.8,31.3,5.7,29c0.2-0.2,0.4-0.5,0.7-0.7l14.3-12c1.3-1.1,1.7-3,1.6-4.7c-0.3-5,3.4-9.2,8.3-9.6c1.1-0.1,2.3,0.1,3.4,0.4
	c0.6,0.2,0.8,1,0.3,1.5L29,9.3c-0.3,0.3-0.4,0.6-0.2,1c0.6,1.5,1.8,2.6,3.2,3.2c0.3,0.1,0.7,0,1-0.2l5.3-5.4
	c0.3-0.5,1.1-0.3,1.3,0.3C39.8,9.1,40,10,40,11 M10.4,34c1.1,0,2-0.9,2-2c0-1.1-0.9-2-2-2s-2,0.9-2,2C8.4,33.1,9.3,34,10.4,34"/>
</svg>
