<?xml version="1.0" encoding="utf-8"?>
<!-- Generator: Adobe Illustrator 28.1.0, SVG Export Plug-In . SVG Version: 6.00 Build 0)  -->
<svg version="1.1" id="Layer_1" xmlns="http://www.w3.org/2000/svg" xmlns:xlink="http://www.w3.org/1999/xlink" x="0px" y="0px"
	 viewBox="0 0 40 40" style="enable-background:new 0 0 40 40;" xml:space="preserve">
<style type="text/css">
	.st0{fill:#FFFFFF;}
</style>
<path class="st0" d="M37,23.5l-6-3.5l6-3.5c0.9-0.5,1.2-1.6,0.7-2.5L34,7.7c-0.5-0.9-1.6-1.2-2.5-0.7l-6,3.5V3.6
	c0-1-0.8-1.8-1.8-1.8h-7.3c-1,0-1.8,0.8-1.8,1.8v6.9L8.5,7C7.6,6.5,6.5,6.8,6,7.7L2.4,14c-0.5,0.9-0.2,2,0.7,2.5l6,3.5l-6,3.5
	C2.2,24,1.9,25.1,2.4,26L6,32.3c0.5,0.9,1.6,1.2,2.5,0.7l6-3.5v6.9c0,1,0.8,1.8,1.8,1.8h7.3c1,0,1.8-0.8,1.8-1.8v-6.9l6,3.5
	c0.9,0.5,2,0.2,2.5-0.7l3.6-6.3C38.1,25.1,37.8,24,37,23.5 M31.7,28.9L23.2,24c-0.6-0.4-1.4,0.1-1.4,0.8v9.9h-3.6v-9.9
	c0-0.7-0.8-1.1-1.4-0.8l-8.5,4.9l-1.8-3.2l8.5-4.9c0.6-0.3,0.6-1.2,0-1.6l-8.5-4.9l1.8-3.2l8.5,4.9c0.6,0.3,1.4-0.1,1.4-0.8V5.4h3.6
	v9.9c0,0.7,0.8,1.1,1.4,0.8l8.5-4.9l1.8,3.2L25,19.2c-0.6,0.3-0.6,1.2,0,1.6l8.5,4.9L31.7,28.9z"/>
</svg>
