<?xml version="1.0" encoding="utf-8"?>
<!-- Generator: Adobe Illustrator 28.1.0, SVG Export Plug-In . SVG Version: 6.00 Build 0)  -->
<svg version="1.1" id="Layer_1" xmlns="http://www.w3.org/2000/svg" xmlns:xlink="http://www.w3.org/1999/xlink" x="0px" y="0px"
	 viewBox="0 0 40 40" style="enable-background:new 0 0 40 40;" xml:space="preserve">
<style type="text/css">
	.st0{fill:#FFFFFF;}
</style>
<path class="st0" d="M2.8,1.8h5.8c0.5,0,1,0.2,1.4,0.6l4,4l1.5-1.5c0.8-0.8,1.8-1.1,2.7-1.1h11.6c1,0,1.9,0.4,2.7,1.1l1.9,1.9
	c0.8,0.8,1.1,1.8,1.1,2.7v25.1c0,2.1-1.7,3.9-3.9,3.9H12.4c-2.1,0-3.9-1.7-3.9-3.9V13.4c0-1,0.4-1.9,1.1-2.7l1.5-1.5L7.8,5.7h-5V1.8
	z M18.2,7.6v3.9h11.6V7.6H18.2z M19,19.2l-3.9-3.9h-2.7v2.7l3.9,3.9v6.1l-3.9,3.9v2.7h2.7l3.9-3.9h6.1l3.9,3.9h2.7v-2.7l-3.9-3.9
	v-6.1l3.9-3.9v-2.7H29l-3.9,3.9H19z M20.1,23.1H24v3.9h-3.9V23.1z"/>
</svg>
