<?xml version="1.0" encoding="utf-8"?>
<!-- Generator: Adobe Illustrator 28.1.0, SVG Export Plug-In . SVG Version: 6.00 Build 0)  -->
<svg version="1.1" id="Layer_1" xmlns="http://www.w3.org/2000/svg" xmlns:xlink="http://www.w3.org/1999/xlink" x="0px" y="0px"
	 viewBox="0 0 40 40" style="enable-background:new 0 0 40 40;" xml:space="preserve">
<style type="text/css">
	.st0{fill:#FFFFFF;}
</style>
<path class="st0" d="M29.5,37.2h2.6c1.3,0,2.4-1,2.5-2.3l2.6-25.7h-7.8V2.8h-3.1v6.3h-7.8l0.5,3.7c2.7,0.7,5.2,2.1,6.7,3.5
	c2.2,2.2,3.8,4.5,3.8,8.3L29.5,37.2z M2.8,35.6v-1.6h23.5v1.6c0,0.8-0.7,1.6-1.6,1.6H4.4C3.5,37.2,2.8,36.5,2.8,35.6 M26.3,24.7
	c0-12.5-23.5-12.5-23.5,0H26.3z M2.8,27.8h23.4v3.1H2.8V27.8z"/>
</svg>
