<?xml version="1.0" encoding="utf-8"?>
<!-- Generator: Adobe Illustrator 28.1.0, SVG Export Plug-In . SVG Version: 6.00 Build 0)  -->
<svg version="1.1" id="Layer_1" xmlns="http://www.w3.org/2000/svg" xmlns:xlink="http://www.w3.org/1999/xlink" x="0px" y="0px"
	 viewBox="0 0 40 40" style="enable-background:new 0 0 40 40;" xml:space="preserve">
<style type="text/css">
	.st0{fill:#FFFFFF;}
</style>
<path class="st0" d="M20.9,0.8c-0.4-0.5-1.1-0.5-1.6-0.1c0,0-0.1,0.1-0.1,0.1c-3,3.5-12.9,15.8-12.9,24.9c0,8.5,5.3,13.8,13.8,13.8
	s13.8-5.3,13.8-13.8C33.8,16.6,23.9,4.4,20.9,0.8z M21.5,34.5c-0.6,0-1.2-0.5-1.2-1.1c0-0.1,0-0.3,0.1-0.4c0.2-0.5,0.6-0.8,1.1-0.8
	c3.2,0,5.7-2.6,5.7-5.7c0-0.5,0.3-0.9,0.8-1.1c0.6-0.2,1.3,0.1,1.5,0.7c0,0.1,0.1,0.3,0.1,0.4C29.6,30.9,26,34.5,21.5,34.5z"/>
</svg>
