<?xml version="1.0" encoding="utf-8"?>
<!-- Generator: Adobe Illustrator 28.1.0, SVG Export Plug-In . SVG Version: 6.00 Build 0)  -->
<svg version="1.1" id="Layer_1" xmlns="http://www.w3.org/2000/svg" xmlns:xlink="http://www.w3.org/1999/xlink" x="0px" y="0px"
	 viewBox="0 0 40 40" style="enable-background:new 0 0 40 40;" xml:space="preserve">
<style type="text/css">
	.st0{fill:#FFFFFF;}
</style>
<path class="st0" d="M8,4.2c-0.2,2.6,0.8,5.2,2.6,7.1c-3.6,1-6.2,4.1-6.7,7.7c-0.6,4.3,0.3,8.7,2.5,12.5L7,32.7c0,0,0.1,0.1,0.1,0.1
	l2.6,3.5c2.1,2.8,6.1,3.4,8.9,1.3c0.3-0.2,0.5-0.4,0.8-0.7c0.3-0.3,0.8-0.3,1.1,0c0,0,0,0,0,0c2.4,2.5,6.5,2.6,9,0.2
	c0.3-0.2,0.5-0.5,0.7-0.8l2.6-3.5c0,0,0.1-0.1,0.1-0.1l0.6-1.1c2.2-3.8,3.1-8.2,2.5-12.5c-0.7-5.1-5.5-8.7-10.6-8
	c-0.2,0-0.4,0.1-0.6,0.1l-3.5,0.7h0c0.1-1.4,0.3-3,0.7-4.3C22.6,6,23.4,5,24.2,4.7c0.7-0.3,1-1.1,0.7-1.8c-0.3-0.7-1.1-1-1.8-0.7
	c-1.9,0.8-3,2.7-3.6,4.6L19.4,7c-0.5-0.9-1-1.7-1.7-2.4c-1.9-1.9-4.6-2.9-7.3-2.8C9.1,1.9,8.1,2.9,8,4.2 M13.4,18.6
	c-0.6,0.1-1.2,0.6-1.6,1.4c-0.4,0.9-0.5,2.2-0.1,3.8c0.2,0.7-0.3,1.5-1,1.7c-0.7,0.2-1.5-0.3-1.6-1c-0.5-2.1-0.4-4,0.2-5.5
	c0.7-1.6,1.9-2.7,3.6-3c0.7-0.2,1.5,0.3,1.7,1C14.7,17.6,14.2,18.4,13.4,18.6C13.4,18.5,13.4,18.5,13.4,18.6"/>
</svg>
