<?xml version="1.0" encoding="utf-8"?>
<!-- Generator: Adobe Illustrator 28.1.0, SVG Export Plug-In . SVG Version: 6.00 Build 0)  -->
<svg version="1.1" id="Layer_1" xmlns="http://www.w3.org/2000/svg" xmlns:xlink="http://www.w3.org/1999/xlink" x="0px" y="0px"
	 viewBox="0 0 40 40" style="enable-background:new 0 0 40 40;" xml:space="preserve">
<style type="text/css">
	.st0{fill:#FFFFFF;}
</style>
<path class="st0" d="M20,1.7C12.6,1.7,5.3,2.6,5.3,9v17.5c0,3.6,2.9,6.4,6.4,6.4L9,35.7v0.9h4.1l3.7-3.7h6.9l3.7,3.7H31v-0.9
	L28.3,33c3.6,0,6.4-2.9,6.4-6.4V9C34.7,2.6,28.1,1.7,20,1.7 M11.7,29.3c-1.5,0-2.8-1.2-2.8-2.8s1.2-2.8,2.8-2.8s2.8,1.2,2.8,2.8
	S13.2,29.3,11.7,29.3 M18.2,16.4H9V9h9.2V16.4z M21.8,16.4V9H31v7.4H21.8z M28.3,29.3c-1.5,0-2.8-1.2-2.8-2.8s1.2-2.8,2.8-2.8
	c1.5,0,2.8,1.2,2.8,2.8S29.8,29.3,28.3,29.3"/>
</svg>
