<?xml version="1.0" encoding="utf-8"?>
<!-- Generator: Adobe Illustrator 28.1.0, SVG Export Plug-In . SVG Version: 6.00 Build 0)  -->
<svg version="1.1" id="Layer_1" xmlns="http://www.w3.org/2000/svg" xmlns:xlink="http://www.w3.org/1999/xlink" x="0px" y="0px"
	 viewBox="0 0 40 40" style="enable-background:new 0 0 40 40;" xml:space="preserve">
<style type="text/css">
	.st0{fill:#FFFFFF;}
</style>
<path class="st0" d="M5.7,5.7l3.6,7.1h5.4l-3.6-7.1h3.6l3.6,7.1h5.4L20,5.7h3.6l3.6,7.1h5.4l-3.6-7.1h5.4c1,0,1.8,0.3,2.5,1
	c0.7,0.7,1,1.5,1,2.5v21.4c0,1-0.3,1.8-1,2.5c-0.7,0.7-1.5,1-2.5,1H5.7c-1,0-1.8-0.3-2.5-1c-0.7-0.7-1-1.5-1-2.5V9.3
	c0-1,0.3-1.8,1-2.5S4.8,5.7,5.7,5.7"/>
</svg>
