<?xml version="1.0" encoding="utf-8"?>
<!-- Generator: Adobe Illustrator 28.1.0, SVG Export Plug-In . SVG Version: 6.00 Build 0)  -->
<svg version="1.1" id="Layer_1" xmlns="http://www.w3.org/2000/svg" xmlns:xlink="http://www.w3.org/1999/xlink" x="0px" y="0px"
	 viewBox="0 0 40 40" style="enable-background:new 0 0 40 40;" xml:space="preserve">
<style type="text/css">
	.st0{fill:#FFFFFF;}
</style>
<path class="st0" d="M12.2,1.1c-2.4,0-4.4,2-4.4,4.4v29c0,2.4,2,4.4,4.4,4.4h15.5c2.4,0,4.4-2,4.4-4.4v-29c0-2.4-2-4.4-4.4-4.4H12.2
	z M17.3,30.8h5.4c0.7,0,1.3,0.6,1.3,1.3c0,0.7-0.6,1.3-1.3,1.3h-5.4c-0.7,0-1.3-0.6-1.3-1.3C16,31.4,16.6,30.8,17.3,30.8"/>
</svg>
